<?xml version="1.0" standalone="no"?>
<!DOCTYPE svg PUBLIC "-//W3C//DTD SVG 20010904//EN"
 "http://www.w3.org/TR/2001/REC-SVG-20010904/DTD/svg10.dtd">
<svg version="1.0" xmlns="http://www.w3.org/2000/svg"
 width="512.000000pt" height="512.000000pt" viewBox="0 0 512.000000 512.000000"
 preserveAspectRatio="xMidYMid meet">

<g transform="translate(0.000000,512.000000) scale(0.100000,-0.100000)"
fill="#000000" stroke="none">
<path d="M1260 5111 c-79 -25 -158 -89 -194 -160 -9 -16 -20 -60 -26 -98 -13
-93 -13 -4493 0 -4586 6 -38 17 -82 26 -98 26 -50 85 -109 138 -137 l51 -27
1305 0 1305 0 51 27 c53 28 112 87 139 137 8 17 20 66 26 108 6 51 9 749 7
2039 -3 1913 -3 1962 -22 1983 -26 29 -86 29 -112 0 -19 -21 -19 -68 -22
-1910 l-2 -1889 -986 0 -985 0 -24 -25 c-32 -31 -32 -69 0 -100 l24 -25 986 0
985 0 0 -49 c0 -59 -30 -108 -80 -133 -33 -17 -115 -18 -1290 -18 -1175 0
-1257 1 -1290 18 -50 25 -80 74 -80 133 l0 49 238 0 c226 0 239 1 260 20 30
28 30 82 0 110 -21 19 -34 20 -260 20 l-238 0 0 2184 0 2183 23 34 c42 63 66
69 303 69 l211 0 6 -102 c6 -88 10 -108 34 -147 18 -28 44 -53 72 -68 l44 -23
677 0 677 0 44 23 c28 15 54 40 72 68 24 39 28 59 34 147 l6 102 211 0 c232 0
258 -5 300 -63 18 -25 22 -47 26 -182 5 -142 7 -156 27 -176 28 -29 77 -29
106 -1 18 18 22 36 25 116 5 109 -11 243 -33 287 -27 50 -86 109 -139 137
l-51 27 -1290 2 c-710 1 -1301 -2 -1315 -6z m1970 -224 c0 -51 -5 -88 -12 -95
-17 -17 -1299 -17 -1316 0 -7 7 -12 44 -12 95 l0 83 670 0 670 0 0 -83z" fill="#005BFF"/>
<path d="M2465 3585 c-32 -31 -33 -75 -2 -102 17 -16 42 -22 107 -27 246 -20
459 -121 621 -294 145 -155 230 -342 251 -554 9 -88 16 -118 31 -135 27 -31
71 -30 102 2 28 27 29 41 15 165 -29 253 -140 480 -323 657 -176 171 -384 271
-627 303 -121 15 -148 13 -175 -15z" fill="#005BFF"/>
<path d="M1826 3489 c-114 -61 -215 -131 -240 -168 -99 -142 -79 -406 50 -662
44 -88 157 -255 239 -354 98 -119 316 -336 430 -428 320 -259 614 -375 850
-337 138 22 180 54 276 213 71 117 83 169 54 232 -15 30 -54 61 -229 178 -116
77 -228 147 -249 154 -72 25 -130 -4 -198 -97 -28 -39 -53 -70 -55 -70 -13 0
-148 89 -204 135 -79 65 -231 219 -293 297 -38 48 -117 171 -117 183 0 2 29
24 65 49 72 52 91 75 105 128 16 56 -1 91 -157 324 -152 227 -169 244 -250
244 -21 0 -56 -9 -77 -21z m213 -322 l129 -193 -66 -50 c-128 -95 -141 -148
-66 -281 64 -113 149 -216 295 -358 133 -129 219 -195 324 -250 115 -60 169
-44 259 77 l50 66 193 -129 c106 -71 193 -132 193 -135 0 -17 -104 -176 -126
-193 -35 -27 -127 -45 -197 -37 -241 25 -508 182 -811 476 -332 323 -516 619
-542 875 -8 75 10 167 39 201 20 23 172 122 189 124 4 0 66 -87 137 -193z" fill="#005BFF"/>
<path d="M2460 3130 c-22 -22 -26 -60 -10 -90 12 -22 61 -40 112 -40 45 0 148
-33 198 -63 53 -32 126 -103 159 -155 37 -59 71 -159 71 -210 0 -81 29 -122
84 -122 45 0 66 32 66 100 0 87 -17 155 -62 250 -33 68 -57 101 -122 166 -121
121 -263 184 -416 184 -47 0 -64 -4 -80 -20z" fill="#005BFF" />
</g>
</svg>
